<svg fill="none" height="24" viewBox="0 0 24 24" width="24" xmlns="http://www.w3.org/2000/svg"><path d="m12 4c-4.41828 0-8 3.58172-8 8 0 4.4183 3.58172 8 8 8 4.4183 0 8-3.5817 8-8 0-4.41828-3.5817-8-8-8zm-10 8c0-5.52285 4.47715-10 10-10 5.5228 0 10 4.47715 10 10 0 5.5228-4.4772 10-10 10-5.52285 0-10-4.4772-10-10zm9.7071-4.70711c.3905.39053.3905 1.02369 0 1.41422l-2.29289 2.29289h7.58579c.5523 0 1 .4477 1 1s-.4477 1-1 1h-7.58579l2.29289 2.2929c.3905.3905.3905 1.0237 0 1.4142s-1.0237.3905-1.4142 0l-4.00001-4c-.39052-.3905-.39052-1.0237 0-1.4142l4.00001-4.00001c.3905-.39052 1.0237-.39052 1.4142 0z" fill="#0d0d0d" xmlns="http://www.w3.org/2000/svg"/></svg>