<svg fill="none" height="24" viewBox="0 0 24 24" width="24" xmlns="http://www.w3.org/2000/svg"><path d="m12 4c-4.41828 0-8 3.58172-8 8 0 4.4183 3.58172 8 8 8 4.4183 0 8-3.5817 8-8 0-4.41828-3.5817-8-8-8zm-10 8c0-5.52285 4.47715-10 10-10 5.5228 0 10 4.47715 10 10 0 5.5228-4.4772 10-10 10-5.52285 0-10-4.4772-10-10zm10-6c.5523 0 1 .44772 1 1v4.5858l2.7071 2.7071c.3905.3905.3905 1.0237 0 1.4142s-1.0237.3905-1.4142 0l-3-3c-.1875-.1875-.2929-.4419-.2929-.7071v-5c0-.55228.4477-1 1-1z" fill="#0d0d0d" xmlns="http://www.w3.org/2000/svg"/></svg>