<svg fill="none" height="24" viewBox="0 0 24 24" width="24" xmlns="http://www.w3.org/2000/svg"><path d="m17 2c-.5523 0-1 .44772-1 1s.4477 1 1 1h1.5858l-4.2929 4.29289c-.3905.39053-.3905 1.02369 0 1.41422.3905.39049 1.0237.39049 1.4142 0l4.2929-4.29289v1.58579c0 .55228.4477.99999 1 .99999s1-.44771 1-1v-4c0-.55228-.4477-1-1-1zm-13 16.5858v-1.5858c0-.5523-.44772-1-1-1-.55229 0-1 .4477-1 1v4c0 .5523.44772 1 1 1h4c.55228 0 1-.4477 1-1s-.44771-1-1-1h-1.58579l4.2929-4.2929c.39049-.3905.39049-1.0237 0-1.4142-.39053-.3905-1.02369-.3905-1.41422 0z" fill="#0d0d0d" xmlns="http://www.w3.org/2000/svg"/></svg>