<svg fill="none" height="24" viewBox="0 0 24 24" width="24" xmlns="http://www.w3.org/2000/svg"><g fill="#0d0d0d"><path d="m15 12c0 1.6569-1.3431 3-3 3s-3-1.3431-3-3 1.3431-3 3-3 3 1.3431 3 3z" xmlns="http://www.w3.org/2000/svg"/><path d="m21.8944 11.5528c-2.1582-4.31645-5.9913-6.5528-9.8944-6.5528-3.90313 0-7.73621 2.23635-9.89443 6.5528-.14076.2815-.14076.6129 0 .8944 2.15822 4.3165 5.9913 6.5528 9.89443 6.5528 3.9031 0 7.7362-2.2363 9.8944-6.5528.1408-.2815.1408-.6129 0-.8944zm-9.8944 5.4472c-2.96879 0-6.00194-1.6208-7.87034-5 1.8684-3.37922 4.90155-5 7.87034-5 2.9688 0 6.0019 1.62078 7.8703 5-1.8684 3.3792-4.9015 5-7.8703 5z" xmlns="http://www.w3.org/2000/svg"/></g></svg>