<svg fill="none" height="24" viewBox="0 0 24 24" width="24" xmlns="http://www.w3.org/2000/svg"><path d="m10.1461 3.24812c.2972-.73196 1.0153-1.24812 1.8539-1.24812s1.5567.51616 1.8539 1.24812c2.9663.8126 5.1461 3.52767 5.1461 6.75188v4.6972l1.8321 2.7481c.2045.3069.2236.7014.0496 1.0266-.174.3251-.5129.5281-.8817.5281h-4.5354c-.2427 1.6961-1.7014 3-3.4646 3s-3.22194-1.3039-3.46455-3h-4.53545c-.36879 0-.70765-.203-.88167-.5281-.17402-.3252-.15495-.7197.04962-1.0266l1.83205-2.7481v-4.6972c0-3.22421 2.17983-5.93928 5.1461-6.75188zm.4393 15.75188c.2059.5826.7615 1 1.4146 1s1.2087-.4174 1.4146-1zm1.4146-14c-2.76142 0-5 2.23858-5 5v5c0 .1974-.05844.3904-.16795.5547l-.96353 1.4453h12.26298l-.9635-1.4453c-.1096-.1643-.168-.3573-.168-.5547v-5c0-2.76142-2.2386-5-5-5z" fill="#0d0d0d" xmlns="http://www.w3.org/2000/svg"/></svg>