<svg fill="none" height="24" viewBox="0 0 24 24" width="24" xmlns="http://www.w3.org/2000/svg"><g fill="#0d0d0d"><path d="m13 5c0-.55228-.4477-1-1-1s-1 .44772-1 1v1c0 .55228.4477 1 1 1s1-.44772 1-1z" xmlns="http://www.w3.org/2000/svg"/><path d="m9.02842 19c-.01943.0006-.0389.0006-.05836 0h-5.97006c-.55228 0-1-.4477-1-1s.44772-1 1-1h3.80293c-.51036-.8823-.80293-1.907-.80293-3 0-3.3137 2.68629-6 6-6 3.3137 0 6 2.6863 6 6 0 1.093-.2926 2.1177-.8029 3h3.8029c.5523 0 1 .4477 1 1s-.4477 1-1 1h-5.9701c-.0194.0006-.0389.0006-.0583 0zm2.97158-9c-2.20914 0-4 1.7909-4 4 0 1.194.5223 2.2659 1.35412 3h5.29178c.8318-.7341 1.3541-1.806 1.3541-3 0-2.2091-1.7909-4-4-4z" xmlns="http://www.w3.org/2000/svg"/><path d="m19.0711 8.34315-.7071.70711c-.3905.39052-1.0237.39053-1.4142 0-.3905-.39052-.3905-1.02369 0-1.41421l.7071-.70711c.3905-.39052 1.0237-.39052 1.4142 0s.3905 1.02369 0 1.41421z" xmlns="http://www.w3.org/2000/svg"/><path d="m4 15c.55228 0 1-.4477 1-1s-.44772-1-1-1h-1c-.55228 0-1 .4477-1 1s.44772 1 1 1z" xmlns="http://www.w3.org/2000/svg"/><path d="m22 14c0 .5523-.4477 1-1 1h-1c-.5523 0-1-.4477-1-1s.4477-1 1-1h1c.5523 0 1 .4477 1 1z" xmlns="http://www.w3.org/2000/svg"/><path d="m5.63603 9.05025c.39053.39052 1.02369.39052 1.41422 0 .39052-.39053.39052-1.02369 0-1.41422l-.70711-.7071c-.39052-.39053-1.02369-.39053-1.41421 0-.39053.39052-.39053 1.02369 0 1.41421z" xmlns="http://www.w3.org/2000/svg"/></g></svg>