<svg fill="none" height="24" viewBox="0 0 24 24" width="24" xmlns="http://www.w3.org/2000/svg"><g fill="#0d0d0d"><path d="m12 14c-.5523 0-1-.4477-1-1v-3c0-.55228.4477-1 1-1s1 .44772 1 1v3c0 .5523-.4477 1-1 1z" xmlns="http://www.w3.org/2000/svg"/><path d="m10.5 16.5c0-.8284.6716-1.5 1.5-1.5s1.5.6716 1.5 1.5-.6716 1.5-1.5 1.5-1.5-.6716-1.5-1.5z" xmlns="http://www.w3.org/2000/svg"/><path d="m10.2301 3.2156c.7499-1.42467 2.7899-1.42468 3.5397 0l8.3437 15.8529c.7009 1.3318-.2649 2.9315-1.7699 2.9315h-16.68725c-1.50502 0-2.47079-1.5997-1.76984-2.9315zm10.1135 16.7844-8.3436-15.8529-8.34365 15.8529z" xmlns="http://www.w3.org/2000/svg"/></g></svg>